<mxfile host="app.diagrams.net" agent="Mozilla/5.0 (Macintosh; Intel Mac OS X 10_15_7) AppleWebKit/537.36 (KHTML, like Gecko) Chrome/136.0.0.0 Safari/537.36" version="27.1.5">
  <diagram name="Page-1" id="u761xgS1Gpn0oOeXiyX_">
    <mxGraphModel dx="1301" dy="895" grid="1" gridSize="10" guides="1" tooltips="1" connect="1" arrows="1" fold="1" page="1" pageScale="1" pageWidth="827" pageHeight="1169" math="0" shadow="0">
      <root>
        <mxCell id="0" />
        <mxCell id="1" parent="0" />
        <mxCell id="W9lF1rRLFasIT-rcRQlu-3" style="edgeStyle=orthogonalEdgeStyle;rounded=0;orthogonalLoop=1;jettySize=auto;html=1;exitX=0.5;exitY=1;exitDx=0;exitDy=0;" edge="1" parent="1" source="W9lF1rRLFasIT-rcRQlu-1" target="W9lF1rRLFasIT-rcRQlu-2">
          <mxGeometry relative="1" as="geometry" />
        </mxCell>
        <mxCell id="W9lF1rRLFasIT-rcRQlu-1" value="start" style="rounded=1;whiteSpace=wrap;html=1;" vertex="1" parent="1">
          <mxGeometry x="300" y="80" width="120" height="60" as="geometry" />
        </mxCell>
        <mxCell id="W9lF1rRLFasIT-rcRQlu-5" style="edgeStyle=orthogonalEdgeStyle;rounded=0;orthogonalLoop=1;jettySize=auto;html=1;exitX=0.5;exitY=1;exitDx=0;exitDy=0;entryX=0.5;entryY=0;entryDx=0;entryDy=0;" edge="1" parent="1" source="W9lF1rRLFasIT-rcRQlu-2" target="W9lF1rRLFasIT-rcRQlu-4">
          <mxGeometry relative="1" as="geometry" />
        </mxCell>
        <mxCell id="W9lF1rRLFasIT-rcRQlu-2" value="check location" style="rounded=0;whiteSpace=wrap;html=1;" vertex="1" parent="1">
          <mxGeometry x="300" y="190" width="120" height="60" as="geometry" />
        </mxCell>
        <mxCell id="W9lF1rRLFasIT-rcRQlu-6" style="edgeStyle=orthogonalEdgeStyle;rounded=0;orthogonalLoop=1;jettySize=auto;html=1;exitX=0.5;exitY=1;exitDx=0;exitDy=0;entryX=0.5;entryY=0;entryDx=0;entryDy=0;" edge="1" parent="1" source="W9lF1rRLFasIT-rcRQlu-4" target="W9lF1rRLFasIT-rcRQlu-9">
          <mxGeometry relative="1" as="geometry">
            <mxPoint x="360" y="410" as="targetPoint" />
          </mxGeometry>
        </mxCell>
        <mxCell id="W9lF1rRLFasIT-rcRQlu-7" value="yes" style="edgeLabel;html=1;align=center;verticalAlign=middle;resizable=0;points=[];" vertex="1" connectable="0" parent="W9lF1rRLFasIT-rcRQlu-6">
          <mxGeometry x="-0.1736" relative="1" as="geometry">
            <mxPoint as="offset" />
          </mxGeometry>
        </mxCell>
        <mxCell id="W9lF1rRLFasIT-rcRQlu-4" value="matinee&amp;nbsp;&lt;div&gt;t&lt;span style=&quot;background-color: transparent; color: light-dark(rgb(0, 0, 0), rgb(255, 255, 255));&quot;&gt;unnel = true&lt;/span&gt;&lt;/div&gt;" style="rhombus;whiteSpace=wrap;html=1;" vertex="1" parent="1">
          <mxGeometry x="295" y="280" width="130" height="80" as="geometry" />
        </mxCell>
        <mxCell id="W9lF1rRLFasIT-rcRQlu-11" value="" style="edgeStyle=orthogonalEdgeStyle;rounded=0;orthogonalLoop=1;jettySize=auto;html=1;" edge="1" parent="1" source="W9lF1rRLFasIT-rcRQlu-9" target="W9lF1rRLFasIT-rcRQlu-10">
          <mxGeometry relative="1" as="geometry" />
        </mxCell>
        <mxCell id="W9lF1rRLFasIT-rcRQlu-18" value="yes" style="edgeLabel;html=1;align=center;verticalAlign=middle;resizable=0;points=[];" vertex="1" connectable="0" parent="W9lF1rRLFasIT-rcRQlu-11">
          <mxGeometry x="0.075" y="1" relative="1" as="geometry">
            <mxPoint as="offset" />
          </mxGeometry>
        </mxCell>
        <mxCell id="W9lF1rRLFasIT-rcRQlu-9" value="does player&amp;nbsp;&lt;div&gt;move east&lt;/div&gt;" style="rhombus;whiteSpace=wrap;html=1;" vertex="1" parent="1">
          <mxGeometry x="300" y="410" width="120" height="90" as="geometry" />
        </mxCell>
        <mxCell id="W9lF1rRLFasIT-rcRQlu-13" style="edgeStyle=orthogonalEdgeStyle;rounded=0;orthogonalLoop=1;jettySize=auto;html=1;exitX=1;exitY=0.5;exitDx=0;exitDy=0;entryX=0;entryY=0.5;entryDx=0;entryDy=0;" edge="1" parent="1" source="W9lF1rRLFasIT-rcRQlu-10" target="W9lF1rRLFasIT-rcRQlu-12">
          <mxGeometry relative="1" as="geometry" />
        </mxCell>
        <mxCell id="W9lF1rRLFasIT-rcRQlu-14" value="no" style="edgeLabel;html=1;align=center;verticalAlign=middle;resizable=0;points=[];" vertex="1" connectable="0" parent="W9lF1rRLFasIT-rcRQlu-13">
          <mxGeometry x="-0.0667" y="-1" relative="1" as="geometry">
            <mxPoint as="offset" />
          </mxGeometry>
        </mxCell>
        <mxCell id="W9lF1rRLFasIT-rcRQlu-15" style="edgeStyle=orthogonalEdgeStyle;rounded=0;orthogonalLoop=1;jettySize=auto;html=1;exitX=0.5;exitY=1;exitDx=0;exitDy=0;entryX=0.5;entryY=0;entryDx=0;entryDy=0;" edge="1" parent="1" source="W9lF1rRLFasIT-rcRQlu-10" target="W9lF1rRLFasIT-rcRQlu-17">
          <mxGeometry relative="1" as="geometry">
            <mxPoint x="360" y="730" as="targetPoint" />
          </mxGeometry>
        </mxCell>
        <mxCell id="W9lF1rRLFasIT-rcRQlu-16" value="yes" style="edgeLabel;html=1;align=center;verticalAlign=middle;resizable=0;points=[];" vertex="1" connectable="0" parent="W9lF1rRLFasIT-rcRQlu-15">
          <mxGeometry x="-0.1075" relative="1" as="geometry">
            <mxPoint as="offset" />
          </mxGeometry>
        </mxCell>
        <mxCell id="W9lF1rRLFasIT-rcRQlu-10" value="does droid&amp;nbsp;&lt;div&gt;blocking = false&lt;/div&gt;" style="rhombus;whiteSpace=wrap;html=1;" vertex="1" parent="1">
          <mxGeometry x="300" y="580" width="120" height="90" as="geometry" />
        </mxCell>
        <mxCell id="W9lF1rRLFasIT-rcRQlu-19" style="edgeStyle=orthogonalEdgeStyle;rounded=0;orthogonalLoop=1;jettySize=auto;html=1;exitX=0.5;exitY=0;exitDx=0;exitDy=0;entryX=1;entryY=0.5;entryDx=0;entryDy=0;" edge="1" parent="1" source="W9lF1rRLFasIT-rcRQlu-12" target="W9lF1rRLFasIT-rcRQlu-4">
          <mxGeometry relative="1" as="geometry" />
        </mxCell>
        <mxCell id="W9lF1rRLFasIT-rcRQlu-12" value="Hazard +1" style="rounded=0;whiteSpace=wrap;html=1;" vertex="1" parent="1">
          <mxGeometry x="480" y="595" width="120" height="60" as="geometry" />
        </mxCell>
        <mxCell id="W9lF1rRLFasIT-rcRQlu-21" style="edgeStyle=orthogonalEdgeStyle;rounded=0;orthogonalLoop=1;jettySize=auto;html=1;exitX=0.5;exitY=1;exitDx=0;exitDy=0;entryX=0.5;entryY=0;entryDx=0;entryDy=0;" edge="1" parent="1" source="W9lF1rRLFasIT-rcRQlu-17" target="W9lF1rRLFasIT-rcRQlu-20">
          <mxGeometry relative="1" as="geometry" />
        </mxCell>
        <mxCell id="W9lF1rRLFasIT-rcRQlu-17" value="update location = docking bay" style="rounded=0;whiteSpace=wrap;html=1;" vertex="1" parent="1">
          <mxGeometry x="300" y="720" width="120" height="60" as="geometry" />
        </mxCell>
        <mxCell id="W9lF1rRLFasIT-rcRQlu-20" value="end" style="rounded=1;whiteSpace=wrap;html=1;" vertex="1" parent="1">
          <mxGeometry x="300" y="820" width="120" height="60" as="geometry" />
        </mxCell>
      </root>
    </mxGraphModel>
  </diagram>
</mxfile>
